<?xml version="1.0" encoding="UTF-8"?>
<svg xmlns="http://www.w3.org/2000/svg" width="768" height="120" viewBox="0 0 768 120" fill="none">
  <path d="M43.7101 119.455L18.2994 82.8107V119.455H0.468262V23.3192H29.9687C38.6388 23.3192 46.7637 24.3552 53.3618 29.9172C60.5051 35.5337 64.5403 44.1494 64.5403 53.3103C64.5403 61.4352 60.9959 70.5962 55.3794 76.2127C50.3081 80.7932 45.7277 82.8107 39.6204 84.3376L65.2186 119.455H43.7101ZM29.4779 40.1142H18.2994V69.6146H29.4779C39.1296 69.6146 46.7637 65.0342 46.7637 54.8372C46.7637 44.6402 38.6388 40.0597 29.4779 40.0597" fill="#F5F5F5"></path>
  <path d="M142.899 119.455L132.702 94.535H98.1306L87.9336 119.455H68.5757L108.818 23.3195H122.56L162.257 119.455H142.899ZM115.416 48.2395L104.238 77.7399H126.104L115.416 48.2395Z" fill="url(#paint0_linear_242_2)"></path>
  <path d="M190.774 23.3195H172.943V119.455H190.774V23.3195Z" fill="url(#paint1_linear_242_2)"></path>
  <path d="M267.063 119.455L226.875 49.2752H226.329V119.455H208.553V23.3192H228.892L268.59 93.0077H269.08V23.3192H286.911V119.455H267.063Z" fill="#F5F5F5"></path>
  <path d="M386.591 119.455V47.203H386.1L361.671 119.455H346.403L321.973 47.203H321.483V119.455H303.706V23.3192H328.626L354.037 96.0614H354.582L379.502 23.3192H404.422V119.455H386.591Z" fill="#F5F5F5"></path>
  <path d="M487.85 119.455L477.653 94.5346H443.082L432.885 119.455H413.036L453.224 23.3192H466.966L507.154 119.455H487.796H487.85ZM460.368 48.2391L449.189 77.7395H471.055L460.368 48.2391Z" fill="#F5F5F5"></path>
  <path d="M567.739 119.455L538.239 77.2487H537.694V119.455H519.917V23.3192H537.694V65.0342H538.239L567.739 23.3192H588.569L552.471 70.6507L588.569 119.455H567.739Z" fill="#F5F5F5"></path>
  <path d="M745.777 119.455L720.367 82.8107H719.876V119.455H702.045V23.3192H731.545C740.216 23.3192 748.34 24.3552 754.938 29.9172C762.082 35.5337 766.117 44.1494 766.117 53.3103C766.117 61.4352 762.573 70.5962 756.956 76.2127C751.885 80.7932 747.304 82.8107 741.197 84.3376L766.795 119.455H745.777ZM731.545 40.1142H720.367V69.6146H731.545C741.197 69.6146 748.831 65.0342 748.831 54.8372C748.34 44.6402 740.706 40.0597 731.545 40.0597" fill="#F5F5F5"></path>
  <path d="M657.275 23.3192H633.336C611.47 23.3192 602.309 42.6771 602.309 51.7835V87.882C602.309 102.114 617.577 118.909 632.846 118.909H675.051V101.623H633.827C629.247 101.623 620.576 95.5161 620.576 82.8107V57.8908C620.576 48.7299 625.648 43.6586 633.282 43.6586H657.22V23.3192H657.275Z" fill="#F5F5F5"></path>
  <path d="M657.274 43.1682H675.105C675.105 43.1682 679.686 80.3027 638.461 80.3027V63.5077C638.461 63.9984 657.274 63.0169 657.274 43.1682Z" fill="#F5F5F5"></path>
  <path d="M668.455 34.0071V12.6316H680.67C685.25 12.6316 688.795 16.176 688.795 20.7565V33.4618H668.455V33.9526V34.0071Z" fill="url(#paint2_linear_242_2)"></path>
  <defs>
    <linearGradient id="paint0_linear_242_2" x1="91.9457" y1="23.3196" x2="148.429" y2="117.055" gradientUnits="userSpaceOnUse">
      <stop offset="0.0896454" stop-color="#FFDD15"></stop>
      <stop offset="1" stop-color="#FBAF01"></stop>
    </linearGradient>
    <linearGradient id="paint1_linear_242_2" x1="168.818" y1="23.3196" x2="190.774" y2="119.455" gradientUnits="userSpaceOnUse">
      <stop stop-color="#FFDD15"></stop>
      <stop offset="1" stop-color="#FBAF01"></stop>
    </linearGradient>
    <linearGradient id="paint2_linear_242_2" x1="668.455" y1="12.6316" x2="688.795" y2="33.267" gradientUnits="userSpaceOnUse">
      <stop stop-color="#FFDD15"></stop>
      <stop offset="1" stop-color="#FBAF01"></stop>
    </linearGradient>
  </defs>
</svg>
